<?xml version="1.0" standalone="no"?><!DOCTYPE svg PUBLIC "-//W3C//DTD SVG 1.1//EN" "http://www.w3.org/Graphics/SVG/1.1/DTD/svg11.dtd"><svg t="1600071322717" class="icon" viewBox="0 0 1024 1024" version="1.1" xmlns="http://www.w3.org/2000/svg" p-id="21140" id="mx_n_1600071322718" xmlns:xlink="http://www.w3.org/1999/xlink" width="200" height="200"><defs><style type="text/css"></style></defs><path d="M704 256a160 160 0 1 0 160 160 160 160 0 0 0-160-160z m0 224a64 64 0 1 1 64-64 64 64 0 0 1-64 64zM256 768H128a32 32 0 0 1 0-64h128a32 32 0 0 1 0 64zM896 768h-128a32 32 0 0 1 0-64h128a32 32 0 0 1 0 64z" fill="#ffffff" p-id="21141"></path><path d="M906.56 320a221.12 221.12 0 0 1 21.44 96 224 224 0 0 1-448 0 220.16 220.16 0 0 1 22.08-96H128a96 96 0 0 0-96 96v256a32 32 0 0 0 32 32h896a32 32 0 0 0 32-32v-256a96 96 0 0 0-85.44-96z" fill="#ffffff" p-id="21142"></path></svg>