<?xml version="1.0" standalone="no"?><!DOCTYPE svg PUBLIC "-//W3C//DTD SVG 1.1//EN" "http://www.w3.org/Graphics/SVG/1.1/DTD/svg11.dtd"><svg t="1605360427780" class="icon" viewBox="0 0 1024 1024" version="1.1" xmlns="http://www.w3.org/2000/svg" p-id="2635" xmlns:xlink="http://www.w3.org/1999/xlink" width="48" height="48"><defs><style type="text/css"></style></defs><path d="M511.936 61.568A448 448 0 0 0 64.384 509.12a448 448 0 0 0 447.552 447.552A448 448 0 0 0 959.488 509.12 448 448 0 0 0 511.936 61.568z m0 831.104A384 384 0 0 1 128.384 509.12a384 384 0 0 1 383.552-383.552A384 384 0 0 1 895.488 509.12a383.936 383.936 0 0 1-383.552 383.552z" p-id="2636" fill="#ffffff"></path><path d="M386.112 278.784a31.872 31.872 0 0 1 44.992-0.32l207.104 207.168c6.464 6.4 9.28 14.912 8.96 23.424a30.912 30.912 0 0 1-8.96 23.616L431.04 739.84c-12.224 12.352-32.384 12.224-44.864-0.256s-12.608-32.64-0.384-44.992L571.2 509.184 385.856 323.712a31.744 31.744 0 0 1 0.256-44.928z" p-id="2637" fill="#ffffff"></path></svg>